<svg width="72" height="72" viewBox="0 0 72 72" fill="none" xmlns="http://www.w3.org/2000/svg">
<path d="M49.5511 21.0632C49.2386 24.1507 49.0136 26.7257 48.7011 29.2882C48.5261 30.6882 47.9511 31.9007 46.3761 32.2382C45.0636 32.5132 43.7011 31.7882 42.9136 30.1757C42.1511 28.6257 41.6011 26.9632 41.0261 25.3257C39.3636 20.6257 36.8011 16.4507 33.6261 12.6382C32.6386 11.4507 31.6636 10.2632 30.5261 8.88821C30.2761 9.72571 30.0761 10.4007 29.8761 11.0757C27.7511 18.4132 27.0261 25.8882 27.3511 33.5007C27.4511 35.9632 27.1636 38.4757 26.8136 40.9257C26.5886 42.5007 26.0011 44.1007 24.1011 44.4507C22.7386 44.7007 21.3886 43.5757 20.5636 41.5257C20.0136 40.1507 19.6511 38.6882 19.1511 37.2882C18.8761 36.5007 18.4761 35.7632 18.1136 34.9382C13.5261 40.5132 17.0261 58.9007 23.1386 61.5882C23.1636 56.6632 25.4261 52.5882 28.1011 48.7382C31.8886 43.2882 33.9511 37.2632 34.6386 30.7132C34.6886 30.2257 34.7886 29.7257 34.8761 29.2507C35.3011 27.0257 36.2136 26.6632 37.8761 28.3132C38.9511 29.3757 39.9011 30.6882 40.5261 32.0507C43.6261 38.7257 44.9136 45.6507 42.8136 52.9257C42.5761 53.7257 42.0386 54.8507 42.4386 55.4257C43.1386 56.3007 44.2386 54.8007 44.4761 54.1882C45.1011 52.5757 45.4886 50.8882 45.9886 49.2257C46.3011 48.1882 46.4886 47.0507 47.0511 46.1507C47.4886 45.4507 48.4386 44.5882 49.0886 44.6507C49.7636 44.7132 50.7011 45.6757 50.9261 46.4257C52.5761 52.0132 51.8011 57.1257 46.6511 61.4632C44.0011 63.7007 40.7386 64.4257 37.4011 64.8632C33.6386 65.3507 29.9261 65.5007 26.1511 64.6382C24.3511 64.2257 22.4761 63.9507 21.3886 63.5507C20.3011 63.1507 19.3761 62.3382 18.9386 61.6632C13.3761 53.0757 12.4636 44.0257 16.3761 34.5382C17.1886 32.5757 18.7511 32.1632 20.1261 33.7882C21.1386 34.9882 21.7136 36.6007 22.3511 38.1007C22.7886 39.1507 23.0261 40.2882 23.3261 41.3882C23.7011 42.7632 24.2511 42.9757 24.6261 42.7382C25.0886 42.6007 25.3636 40.9382 25.3136 39.2757C25.2261 36.5382 25.2761 33.7882 24.9886 31.0757C24.1511 23.1257 26.0886 15.6757 28.9136 8.37571C29.6136 6.5507 30.4136 6.3257 31.9136 7.6007C38.0636 12.8132 42.5011 19.1632 44.5136 27.0632C44.8261 28.2632 44.9261 29.6132 46.4511 30.5632C46.6011 29.4007 46.7261 28.4382 46.8636 27.4882C47.2136 25.1382 47.4386 22.7632 47.9636 20.4632C48.2886 19.0757 49.2511 18.7882 50.2636 19.7882C51.5886 21.1007 52.8886 22.5507 53.7511 24.1882C56.9636 30.3132 58.0636 36.9632 58.0386 43.8132C58.0136 49.2007 57.0136 54.4257 54.5386 59.2382C53.7011 60.8757 52.2886 62.2257 51.0886 63.6632C50.5511 64.3132 49.3261 64.1007 49.8886 62.6507C49.9386 62.5257 50.0011 62.3757 50.0886 62.2507C54.7386 56.0132 55.2011 48.7132 55.2636 41.3632C55.3136 35.5007 54.4636 29.7507 51.7261 24.4507C51.1511 23.3632 50.4136 22.3882 49.5511 21.0632ZM48.8761 46.7007C48.1386 49.1507 47.5636 51.1757 46.9011 53.1882C46.3761 54.7757 45.5761 56.2132 44.0011 57.0007C42.1761 57.9257 40.4011 56.9007 40.3011 54.8507C40.2636 54.0132 40.3011 53.1507 40.4636 52.3382C41.7386 45.8132 41.1386 39.4882 38.5886 33.3507C38.1511 32.3007 37.5136 31.3382 36.8761 30.1882C36.6511 30.5632 36.4886 31.9257 36.4636 32.5132C36.3011 36.9632 35.8011 41.3632 33.4636 45.2882C32.0636 47.6257 30.4886 49.8632 28.9636 52.1382C27.2761 54.6757 25.7761 57.3007 25.2261 60.3507C24.8511 62.4382 25.0136 62.5382 27.0136 63.0507C31.2511 64.1257 35.4011 63.4382 39.5386 62.6132C44.2511 61.6757 47.1886 58.5757 48.9386 54.3007C49.9011 51.9632 49.6261 49.5382 48.8761 46.7007Z" fill="#6966FF"/>
</svg>
