<svg width="156" height="139" viewBox="0 0 156 139" fill="none" xmlns="http://www.w3.org/2000/svg">
<g clip-path="url(#clip0_2399_25772)">
<path d="M68.4685 -3.93008C69.142 -4.51817 69.2106 -5.54184 68.6217 -6.21661C68.0328 -6.89137 67.0093 -6.96156 66.3358 -6.37348L68.4685 -3.93008ZM148.886 80.1062C149.741 79.8434 150.219 78.9366 149.955 78.0811L145.65 64.1393C145.386 63.2837 144.478 62.8032 143.624 63.0662C142.769 63.3292 142.29 64.236 142.554 65.0916L146.381 77.4843L133.999 81.2934C133.144 81.5564 132.665 82.4632 132.929 83.3188C133.194 84.1743 134.101 84.6546 134.956 84.3916L148.886 80.1062ZM97.8413 33.0711L99.255 33.8649C99.5929 33.2616 99.5101 32.5098 99.0492 31.9931C98.5884 31.4765 97.8509 31.3091 97.2133 31.5764L97.8413 33.0711ZM66.3358 -6.37348C37.3285 18.9531 21.6132 35.3815 15.2181 45.4773C13.6109 48.0146 12.5378 50.2342 12.0111 52.1565C11.4856 54.0743 11.4615 55.8611 12.1916 57.3722C12.9369 58.9147 14.3144 59.8565 15.9249 60.3794C17.512 60.8947 19.441 61.0472 21.5669 60.9613C29.995 60.6209 43.4561 56.4082 57.5396 51.1655C71.7001 45.8943 86.7589 39.4745 98.4694 34.566L97.2133 31.5764C85.4719 36.4978 70.4887 42.8851 56.4055 48.1277C42.2454 53.3987 29.2612 57.4065 21.4312 57.7227C19.4927 57.801 17.9938 57.6449 16.9209 57.2966C15.8713 56.9558 15.3565 56.4789 15.1083 55.9653C14.845 55.4202 14.7262 54.5134 15.136 53.0178C15.5446 51.5267 16.4368 49.6132 17.9558 47.2152C24.0655 37.5699 39.4307 21.4231 68.4685 -3.93008L66.3358 -6.37348ZM96.4277 32.2774C84.5009 53.5754 74.7543 63.0434 68.7636 66.4021C67.2776 67.2354 66.0761 67.6621 65.1727 67.8249C64.249 67.9915 63.7667 67.8617 63.5829 67.7663C63.4751 67.7104 63.451 67.6748 63.4414 67.5519C63.4254 67.3499 63.4924 66.8974 63.9259 66.2286C64.7857 64.9021 66.8173 63.1682 70.4341 61.8127C74.021 60.4683 79.0739 59.5344 85.8098 59.7291C99.288 60.1188 119.392 65.025 147.651 79.9893L149.164 77.1251C120.635 62.0181 100.035 56.8979 85.8984 56.4893C78.8267 56.2847 73.344 57.2588 69.2931 58.7773C65.2722 60.2844 62.5637 62.3683 61.2064 64.4624C60.5315 65.5039 60.121 66.6624 60.2115 67.8031C60.308 69.0229 60.9745 70.0618 62.0942 70.643C63.1383 71.1847 64.4206 71.2548 65.7522 71.0148C67.1039 70.7711 68.6482 70.185 70.3511 69.2302C77.1175 65.4363 87.2252 55.3467 99.255 33.8649L96.4277 32.2774Z" fill="#6966FF"/>
</g>
<defs>
<clipPath id="clip0_2399_25772">
<rect width="102" height="120" fill="white" transform="translate(0.727539 44.835) rotate(-38.532)"/>
</clipPath>
</defs>
</svg>
