<svg width="117" height="48" viewBox="0 0 117 48" fill="none" xmlns="http://www.w3.org/2000/svg">
<path d="M0 45.8522C0.168921 46.9864 1.25484 47.9999 2.88372 47.9999C5.11589 47.9999 5.99669 46.5158 5.99669 44.8869V39.5901H4.45227V40.2899C4.24715 39.8917 3.70419 39.4815 2.76306 39.4815C1.13418 39.4815 0 40.8087 0 42.3773C0 44.0423 1.18245 45.261 2.76306 45.261C3.61973 45.261 4.17476 44.8869 4.41607 44.5008V44.9352C4.41607 46.0815 3.84898 46.5882 2.83546 46.5882C2.07531 46.5882 1.55649 46.1177 1.44789 45.4661L0 45.8522ZM3.04058 43.8855C2.20804 43.8855 1.61681 43.3063 1.61681 42.3773C1.61681 41.4603 2.24423 40.8811 3.04058 40.8811C3.81279 40.8811 4.44021 41.4603 4.44021 42.3773C4.44021 43.2943 3.86105 43.8855 3.04058 43.8855Z" fill="url(#paint0_linear_2399_25471)"/>
<path d="M9.23654 39.5901H7.63179V45.5264H9.23654V40.676C9.27274 41.231 9.73124 41.6533 10.3104 41.6533C10.9137 41.6533 11.3842 41.1828 11.3842 40.5795C11.3842 39.9762 10.9137 39.5056 10.3104 39.5056C9.73124 39.5056 9.27274 39.94 9.23654 40.5071V39.5901Z" fill="url(#paint1_linear_2399_25471)"/>
<path d="M13.553 42.5341C13.553 41.4482 14.1804 40.8087 15.0371 40.8087C15.8817 40.8087 16.497 41.4482 16.497 42.5341C16.497 43.62 15.8696 44.3078 15.0371 44.3078C14.1683 44.3078 13.553 43.608 13.553 42.5341ZM16.5091 44.7904C16.5091 45.08 16.5453 45.3937 16.5694 45.5264H18.1018C18.0897 45.3937 18.0535 44.9835 18.0535 44.4526V39.5901H16.497V40.3261C16.3522 39.9882 15.8575 39.4212 14.7958 39.4212C13.0703 39.4212 11.9362 40.7967 11.9362 42.5341C11.9362 44.3319 13.0945 45.6954 14.844 45.6954C15.6404 45.6954 16.2557 45.2851 16.5091 44.718V44.7904Z" fill="url(#paint2_linear_2399_25471)"/>
<path d="M21.3023 42.1118C21.3023 41.4241 21.7126 40.8811 22.4124 40.8811C23.1846 40.8811 23.5104 41.3999 23.5104 42.0636V45.5264H25.1151V41.786C25.1151 40.4829 24.4394 39.4332 22.9674 39.4332C22.3279 39.4332 21.616 39.7107 21.2541 40.3261V39.5901H19.6976V45.5264H21.3023V42.1118Z" fill="url(#paint3_linear_2399_25471)"/>
<path d="M28.784 37.8164H27.3361V38.6489C27.3361 39.1798 27.0466 39.5901 26.4191 39.5901H26.1175V41.0138H27.1914V43.7769C27.1914 44.9231 27.9153 45.6109 29.0736 45.6109C29.5442 45.6109 29.8338 45.5264 29.9785 45.4661V44.1389C29.8941 44.163 29.6769 44.1871 29.4839 44.1871C29.0254 44.1871 28.784 44.0182 28.784 43.4994V41.0138H29.9785V39.5901H28.784V37.8164Z" fill="url(#paint4_linear_2399_25471)"/>
<path d="M30.8703 43.8734C30.9427 44.5491 31.558 45.7074 33.3438 45.7074C34.9003 45.7074 35.6483 44.718 35.6483 43.7528C35.6483 42.884 35.0571 42.1722 33.8867 41.9308L33.0421 41.7498C32.7164 41.6895 32.4992 41.5085 32.4992 41.219C32.4992 40.8811 32.837 40.6277 33.2593 40.6277C33.935 40.6277 34.1884 41.0742 34.2366 41.4241L35.5759 41.1224C35.5035 40.4829 34.9365 39.4091 33.2472 39.4091C31.9683 39.4091 31.0271 40.2899 31.0271 41.3517C31.0271 42.1842 31.546 42.872 32.6922 43.1253L33.4765 43.3063C33.935 43.4029 34.116 43.62 34.116 43.8855C34.116 44.1992 33.8626 44.4767 33.3317 44.4767C32.6319 44.4767 32.282 44.0423 32.2458 43.5718L30.8703 43.8734Z" fill="url(#paint5_linear_2399_25471)"/>
<path d="M108.307 0.0273438L84.123 34.0735H91.5479L115.857 0.0273438H108.307Z" fill="#1C1C28"/>
<path d="M92.3214 0.0273438L99.437 10.0596L95.7245 15.5317L84.7418 0.0273438H92.3214Z" fill="#1C1C28"/>
<path fill-rule="evenodd" clip-rule="evenodd" d="M99.437 10.0596L92.3214 0.0273438H84.7418L95.7245 15.5317L99.437 10.0596ZM95.7064 13.739L98.1938 10.0725L91.7936 1.04881H86.7172L95.7064 13.739ZM84.123 34.0735H91.5479L115.857 0.0273438H108.307L84.123 34.0735ZM86.1015 33.052H91.0221L113.872 1.04881H108.834L86.1015 33.052Z" fill="white"/>
<path d="M109.085 34.1545L101.143 23.1274L104.921 17.7295L116.488 34.1545H109.085Z" fill="#1C1C28"/>
<path fill-rule="evenodd" clip-rule="evenodd" d="M109.608 33.1331H114.519L104.924 19.5071L102.395 23.1189L109.608 33.1331ZM101.143 23.1274L109.085 34.1545H116.488L104.921 17.7295L101.143 23.1274Z" fill="url(#paint6_linear_2399_25471)"/>
<g filter="url(#filter0_d_2399_25471)">
<path fill-rule="evenodd" clip-rule="evenodd" d="M75.6204 0H82.109V33.875H75.6204V32.6097C73.7464 33.6108 71.5949 34.1801 69.307 34.1801C62.0431 34.1801 56.1545 28.4415 56.1545 21.3626C56.1545 14.2836 62.0431 8.54503 69.307 8.54503C71.5949 8.54503 73.7464 9.11432 75.6204 10.1155V0ZM69.2378 28.5546C73.3518 28.5546 76.687 25.3044 76.687 21.2951C76.687 17.2858 73.3518 14.0356 69.2378 14.0356C65.1237 14.0356 61.7885 17.2858 61.7885 21.2951C61.7885 25.3044 65.1237 28.5546 69.2378 28.5546Z" fill="white"/>
<path d="M56.8 0L32.672 33.875H40.2362L64.3408 0H56.8Z" fill="white"/>
<path d="M40.242 0L47.812 10.2843L43.6408 16.0314L32.363 0H40.242Z" fill="url(#paint7_linear_2399_25471)"/>
<path fill-rule="evenodd" clip-rule="evenodd" d="M24.0205 0H30.5091V33.875H24.0205V32.6097C22.1465 33.6108 19.9951 34.1801 17.7072 34.1801C10.4433 34.1801 4.55469 28.4415 4.55469 21.3626C4.55469 14.2836 10.4433 8.54503 17.7072 8.54503C19.9951 8.54503 22.1465 9.11432 24.0205 10.1155V0ZM17.6379 28.5546C21.752 28.5546 25.0871 25.3044 25.0871 21.2951C25.0871 17.2858 21.752 14.0356 17.6379 14.0356C13.5238 14.0356 10.1887 17.2858 10.1887 21.2951C10.1887 25.3044 13.5238 28.5546 17.6379 28.5546Z" fill="white"/>
</g>
<defs>
<filter id="filter0_d_2399_25471" x="0.554688" y="0" width="85.5547" height="42.1802" filterUnits="userSpaceOnUse" color-interpolation-filters="sRGB">
<feFlood flood-opacity="0" result="BackgroundImageFix"/>
<feColorMatrix in="SourceAlpha" type="matrix" values="0 0 0 0 0 0 0 0 0 0 0 0 0 0 0 0 0 0 127 0" result="hardAlpha"/>
<feOffset dy="4"/>
<feGaussianBlur stdDeviation="2"/>
<feComposite in2="hardAlpha" operator="out"/>
<feColorMatrix type="matrix" values="0 0 0 0 0 0 0 0 0 0 0 0 0 0 0 0 0 0 0.05 0"/>
<feBlend mode="normal" in2="BackgroundImageFix" result="effect1_dropShadow_2399_25471"/>
<feBlend mode="normal" in="SourceGraphic" in2="effect1_dropShadow_2399_25471" result="shape"/>
</filter>
<linearGradient id="paint0_linear_2399_25471" x1="17.8288" y1="36.02" x2="17.8288" y2="46.7999" gradientUnits="userSpaceOnUse">
<stop stop-color="#6966FF"/>
<stop offset="0.9999" stop-color="#5251C1"/>
<stop offset="1" stop-color="#6966FF" stop-opacity="0"/>
</linearGradient>
<linearGradient id="paint1_linear_2399_25471" x1="17.8288" y1="36.02" x2="17.8288" y2="46.7999" gradientUnits="userSpaceOnUse">
<stop stop-color="#6966FF"/>
<stop offset="0.9999" stop-color="#5251C1"/>
<stop offset="1" stop-color="#6966FF" stop-opacity="0"/>
</linearGradient>
<linearGradient id="paint2_linear_2399_25471" x1="17.8288" y1="36.02" x2="17.8288" y2="46.7999" gradientUnits="userSpaceOnUse">
<stop stop-color="#6966FF"/>
<stop offset="0.9999" stop-color="#5251C1"/>
<stop offset="1" stop-color="#6966FF" stop-opacity="0"/>
</linearGradient>
<linearGradient id="paint3_linear_2399_25471" x1="17.8288" y1="36.02" x2="17.8288" y2="46.7999" gradientUnits="userSpaceOnUse">
<stop stop-color="#6966FF"/>
<stop offset="0.9999" stop-color="#5251C1"/>
<stop offset="1" stop-color="#6966FF" stop-opacity="0"/>
</linearGradient>
<linearGradient id="paint4_linear_2399_25471" x1="17.8288" y1="36.02" x2="17.8288" y2="46.7999" gradientUnits="userSpaceOnUse">
<stop stop-color="#6966FF"/>
<stop offset="0.9999" stop-color="#5251C1"/>
<stop offset="1" stop-color="#6966FF" stop-opacity="0"/>
</linearGradient>
<linearGradient id="paint5_linear_2399_25471" x1="17.8288" y1="36.02" x2="17.8288" y2="46.7999" gradientUnits="userSpaceOnUse">
<stop stop-color="#6966FF"/>
<stop offset="0.9999" stop-color="#5251C1"/>
<stop offset="1" stop-color="#6966FF" stop-opacity="0"/>
</linearGradient>
<linearGradient id="paint6_linear_2399_25471" x1="108.815" y1="17.7295" x2="108.815" y2="34.1545" gradientUnits="userSpaceOnUse">
<stop stop-color="#6966FF"/>
<stop offset="0.9999" stop-color="#5251C1"/>
<stop offset="1" stop-color="#6966FF" stop-opacity="0"/>
</linearGradient>
<linearGradient id="paint7_linear_2399_25471" x1="35.5764" y1="4.69139" x2="49.2667" y2="44.9546" gradientUnits="userSpaceOnUse">
<stop stop-color="white"/>
<stop offset="1" stop-color="white" stop-opacity="0.55"/>
</linearGradient>
</defs>
</svg>
