<svg xmlns="http://www.w3.org/2000/svg" xmlns:xlink="http://www.w3.org/1999/xlink" width="400" zoomAndPan="magnify" viewBox="0 0 300 74.999997" height="100" preserveAspectRatio="xMidYMid meet" version="1.0"><defs><g/></defs><g fill="#ffffff" fill-opacity="1"><g transform="translate(5.329247, 53.572)"><g><path d="M 16.109375 -6.734375 L 4.15625 -18.140625 L 16.109375 -29.484375 L 21.796875 -29.484375 L 9.8125 -18.140625 L 21.796875 -6.734375 Z M 16.109375 -6.734375 "/></g></g></g><g fill="#ffffff" fill-opacity="1"><g transform="translate(37.591072, 53.572)"><g><path d="M 42.46875 -34.78125 L 42.46875 0 L 33.984375 0 L 33.984375 -20.859375 L 26.203125 0 L 19.375 0 L 11.546875 -20.90625 L 11.546875 0 L 3.078125 0 L 3.078125 -34.78125 L 13.078125 -34.78125 L 22.84375 -10.703125 L 32.5 -34.78125 Z M 42.46875 -34.78125 "/></g></g></g><g fill="#ffffff" fill-opacity="1"><g transform="translate(87.821318, 53.572)"><g><path d="M 11.390625 -34.78125 L 11.390625 -13.96875 C 11.390625 -11.882812 11.898438 -10.28125 12.921875 -9.15625 C 13.953125 -8.039062 15.457031 -7.484375 17.4375 -7.484375 C 19.414062 -7.484375 20.929688 -8.039062 21.984375 -9.15625 C 23.046875 -10.28125 23.578125 -11.882812 23.578125 -13.96875 L 23.578125 -34.78125 L 32.0625 -34.78125 L 32.0625 -14.015625 C 32.0625 -10.910156 31.398438 -8.285156 30.078125 -6.140625 C 28.753906 -3.992188 26.976562 -2.375 24.75 -1.28125 C 22.519531 -0.195312 20.035156 0.34375 17.296875 0.34375 C 14.546875 0.34375 12.085938 -0.191406 9.921875 -1.265625 C 7.765625 -2.335938 6.054688 -3.953125 4.796875 -6.109375 C 3.546875 -8.273438 2.921875 -10.910156 2.921875 -14.015625 L 2.921875 -34.78125 Z M 11.390625 -34.78125 "/></g></g></g><g fill="#ffffff" fill-opacity="1"><g transform="translate(127.500387, 53.572)"><g><path d="M 34.1875 0 L 25.71875 0 L 11.546875 -21.453125 L 11.546875 0 L 3.078125 0 L 3.078125 -34.78125 L 11.546875 -34.78125 L 25.71875 -13.234375 L 25.71875 -34.78125 L 34.1875 -34.78125 Z M 34.1875 0 "/></g></g></g><g fill="#ffffff" fill-opacity="1"><g transform="translate(169.507656, 53.572)"><g><path d="M 11.546875 -34.78125 L 11.546875 0 L 3.078125 0 L 3.078125 -34.78125 Z M 11.546875 -34.78125 "/></g></g></g><g fill="#ffffff" fill-opacity="1"><g transform="translate(188.876955, 53.572)"><g><path d="M 42.46875 -34.78125 L 42.46875 0 L 33.984375 0 L 33.984375 -20.859375 L 26.203125 0 L 19.375 0 L 11.546875 -20.90625 L 11.546875 0 L 3.078125 0 L 3.078125 -34.78125 L 13.078125 -34.78125 L 22.84375 -10.703125 L 32.5 -34.78125 Z M 42.46875 -34.78125 "/></g></g></g><g fill="#ffffff" fill-opacity="1"><g transform="translate(239.119326, 53.572)"><g><path d="M 20.65625 -46.671875 L 7.078125 8.421875 L 2.625 8.421875 L 16.15625 -46.671875 Z M 20.65625 -46.671875 "/></g></g></g><g fill="#ffffff" fill-opacity="1"><g transform="translate(267.454642, 53.572)"><g><path d="M 4.65625 -29.484375 L 10.359375 -29.484375 L 22.34375 -18.140625 L 10.359375 -6.734375 L 4.65625 -6.734375 L 16.640625 -18.140625 Z M 4.65625 -29.484375 "/></g></g></g></svg>