<svg xmlns="http://www.w3.org/2000/svg" xmlns:xlink="http://www.w3.org/1999/xlink" width="300" zoomAndPan="magnify" viewBox="0 0 224.87999 112.499997" height="150" preserveAspectRatio="xMidYMid meet" version="1.0"><defs><g/></defs><g fill="#6966ff" fill-opacity="1"><g transform="translate(2.305186, 68.103516)"><g><path d="M 12.15625 -5.09375 L 3.140625 -13.6875 L 12.15625 -22.25 L 16.453125 -22.25 L 7.40625 -13.6875 L 16.453125 -5.09375 Z M 12.15625 -5.09375 "/></g></g></g><g fill="#6966ff" fill-opacity="1"><g transform="translate(26.665665, 68.103516)"><g><path d="M 32.0625 -26.265625 L 32.0625 0 L 25.65625 0 L 25.65625 -15.75 L 19.78125 0 L 14.625 0 L 8.71875 -15.78125 L 8.71875 0 L 2.3125 0 L 2.3125 -26.265625 L 9.875 -26.265625 L 17.25 -8.078125 L 24.53125 -26.265625 Z M 32.0625 -26.265625 "/></g></g></g><g fill="#6966ff" fill-opacity="1"><g transform="translate(64.593862, 68.103516)"><g><path d="M 8.609375 -26.265625 L 8.609375 -10.546875 C 8.609375 -8.972656 8.992188 -7.757812 9.765625 -6.90625 C 10.535156 -6.0625 11.671875 -5.640625 13.171875 -5.640625 C 14.660156 -5.640625 15.804688 -6.0625 16.609375 -6.90625 C 17.410156 -7.757812 17.8125 -8.972656 17.8125 -10.546875 L 17.8125 -26.265625 L 24.203125 -26.265625 L 24.203125 -10.59375 C 24.203125 -8.238281 23.703125 -6.25 22.703125 -4.625 C 21.703125 -3.007812 20.359375 -1.789062 18.671875 -0.96875 C 16.992188 -0.144531 15.125 0.265625 13.0625 0.265625 C 10.988281 0.265625 9.132812 -0.140625 7.5 -0.953125 C 5.863281 -1.765625 4.570312 -2.984375 3.625 -4.609375 C 2.675781 -6.242188 2.203125 -8.238281 2.203125 -10.59375 L 2.203125 -26.265625 Z M 8.609375 -26.265625 "/></g></g></g><g fill="#6966ff" fill-opacity="1"><g transform="translate(94.555004, 68.103516)"><g><path d="M 25.8125 0 L 19.40625 0 L 8.71875 -16.203125 L 8.71875 0 L 2.3125 0 L 2.3125 -26.265625 L 8.71875 -26.265625 L 19.40625 -9.984375 L 19.40625 -26.265625 L 25.8125 -26.265625 Z M 25.8125 0 "/></g></g></g><g fill="#6966ff" fill-opacity="1"><g transform="translate(126.274139, 68.103516)"><g><path d="M 8.71875 -26.265625 L 8.71875 0 L 2.3125 0 L 2.3125 -26.265625 Z M 8.71875 -26.265625 "/></g></g></g><g fill="#6966ff" fill-opacity="1"><g transform="translate(140.899641, 68.103516)"><g><path d="M 32.0625 -26.265625 L 32.0625 0 L 25.65625 0 L 25.65625 -15.75 L 19.78125 0 L 14.625 0 L 8.71875 -15.78125 L 8.71875 0 L 2.3125 0 L 2.3125 -26.265625 L 9.875 -26.265625 L 17.25 -8.078125 L 24.53125 -26.265625 Z M 32.0625 -26.265625 "/></g></g></g><g fill="#6966ff" fill-opacity="1"><g transform="translate(178.836993, 68.103516)"><g><path d="M 15.59375 -35.234375 L 5.34375 6.359375 L 1.984375 6.359375 L 12.1875 -35.234375 Z M 15.59375 -35.234375 "/></g></g></g><g fill="#6966ff" fill-opacity="1"><g transform="translate(200.232617, 68.103516)"><g><path d="M 3.515625 -22.25 L 7.8125 -22.25 L 16.875 -13.6875 L 7.8125 -5.09375 L 3.515625 -5.09375 L 12.5625 -13.6875 Z M 3.515625 -22.25 "/></g></g></g></svg>