<svg width="58" height="37" viewBox="0 0 58 37" fill="none" xmlns="http://www.w3.org/2000/svg">
<path d="M12.3435 33.83C12.3927 34.0303 12.3652 34.2371 12.2611 34.4507C12.163 34.6819 12.0139 34.8221 11.8136 34.8713C11.5075 34.9569 11.2386 34.9212 11.0068 34.7641C10.775 34.607 10.6348 34.4579 10.5862 34.3167C10.3553 33.646 10.0976 32.9549 9.8131 32.2434C9.52255 31.5143 9.21711 30.7705 8.89676 30.0122C8.67947 30.1265 8.46159 30.1818 8.24314 30.178C8.03625 30.1505 7.86713 30.0607 7.73576 29.9085C7.50889 29.651 7.43538 29.3802 7.51523 29.0961C7.59507 28.8119 7.77502 28.5032 8.05509 28.1698C7.74198 27.5472 7.43191 26.9334 7.12488 26.3284C6.8355 25.7173 6.54338 25.1269 6.2485 24.5572C6.19439 24.4574 6.16979 24.3572 6.1747 24.2568C6.17961 24.1564 6.19639 24.0618 6.22503 23.973C6.24759 23.8665 6.31732 23.7537 6.4342 23.6344C6.63326 23.4672 6.91349 23.4497 7.27489 23.5819C7.65394 23.708 7.95719 23.9293 8.18463 24.2459C8.35305 24.563 8.5397 24.933 8.74458 25.3561C8.96103 25.7553 9.18385 26.2018 9.41304 26.6954C9.70468 26.3383 9.96377 25.9727 10.1903 25.5986C10.4345 25.2184 10.6196 24.8387 10.7458 24.4597C10.8896 24.0746 10.9685 23.7019 10.9827 23.3417C10.9908 22.9638 10.9076 22.6074 10.7331 22.2727C10.5945 21.9848 10.3709 21.7656 10.0625 21.6152C9.74794 21.4471 9.34055 21.4393 8.84028 21.5918C8.39296 21.7261 7.96387 21.9133 7.55301 22.1535C7.15981 22.3876 6.77572 22.6482 6.40074 22.9352C6.04342 23.2162 5.69521 23.5237 5.35612 23.8576C5.03468 24.1854 4.72206 24.5102 4.41826 24.832C4.21979 25.0583 3.99396 25.2052 3.74079 25.2726C3.49919 25.3163 3.31878 25.2797 3.19956 25.1628C2.91917 24.8645 2.8186 24.5438 2.89787 24.2006C2.99478 23.8514 3.19484 23.4863 3.49805 23.1055C3.76654 22.7959 4.09681 22.4651 4.48885 22.1129C4.89246 21.737 5.32588 21.3904 5.78911 21.0729C6.2639 20.7317 6.75693 20.4435 7.26819 20.2083C7.79102 19.9493 8.31472 19.7788 8.8393 19.6969C9.3578 19.5973 9.85677 19.6131 10.3362 19.7441C10.8273 19.8514 11.2814 20.1097 11.6987 20.5188C12.2783 21.2273 12.616 21.9501 12.7118 22.6871C12.8192 23.4003 12.7671 24.1092 12.5557 24.8137C12.3558 25.4946 12.0436 26.1647 11.6192 26.8242C11.2063 27.4599 10.7694 28.0545 10.3085 28.6081C10.725 29.5308 11.1119 30.4537 11.4693 31.377C11.8267 32.3003 12.1181 33.118 12.3435 33.83ZM18.5603 19.6072C18.4581 19.4252 18.359 19.252 18.2629 19.0877C18.1669 18.9233 18.0391 18.839 17.8797 18.8347C17.5493 18.8497 17.2285 18.9503 16.9175 19.1364C16.6065 19.3224 16.3371 19.5435 16.1094 19.7996C15.8756 20.038 15.6951 20.2877 15.5678 20.5487C15.4344 20.7921 15.3832 20.9874 15.4142 21.1347C15.4524 21.4176 15.6111 21.6492 15.8903 21.8295C16.1696 22.0097 16.537 22.1596 16.9928 22.2791C17.7381 22.437 18.513 22.5947 19.3174 22.752C20.1218 22.9094 20.8233 23.112 21.422 23.3599C22.0206 23.6079 22.4845 23.9516 22.8135 24.3911C23.1541 24.8069 23.3072 25.3662 23.2728 26.069C23.2427 26.6124 23.0146 27.1252 22.5884 27.6076C22.1623 28.09 21.6619 28.5288 21.0872 28.9241C20.5065 29.3017 19.9107 29.6352 19.2996 29.9246C18.6824 30.1963 18.1532 30.4081 17.712 30.5601C17.6061 30.5965 17.4616 30.6068 17.2784 30.5909C17.1068 30.5513 16.9322 30.5028 16.7545 30.4456C16.5945 30.3822 16.4433 30.3158 16.301 30.2464C16.1702 30.1532 16.0896 30.0625 16.0592 29.9743C15.9498 29.6566 16.0151 29.3873 16.2549 29.1665C16.4948 28.9458 16.7647 28.7837 17.0648 28.6804C17.4883 28.5345 17.9323 28.3619 18.3967 28.1625C18.8727 27.9394 19.3161 27.7078 19.7269 27.4676C20.1317 27.2098 20.4833 26.9406 20.7816 26.6603C21.0799 26.3799 21.2571 26.0918 21.3132 25.7961C21.3638 25.5418 21.1993 25.322 20.8197 25.1369C20.4516 24.928 19.9834 24.7437 19.4152 24.584C18.8645 24.4182 18.2728 24.2765 17.64 24.1588C17.0248 24.035 16.4894 23.9133 16.0337 23.7938C15.578 23.6744 15.16 23.4925 14.7798 23.2484C14.3935 22.9865 14.0769 22.6118 13.8301 22.1243C13.6544 21.6715 13.5996 21.1968 13.6655 20.7003C13.7314 20.2038 13.8774 19.7389 14.1033 19.3058C14.3409 18.8489 14.6468 18.4474 15.0212 18.1013C15.3956 17.7553 15.8034 17.5063 16.2447 17.3543C17.0158 17.1283 17.7152 17.1244 18.3431 17.3425C18.965 17.543 19.4476 17.9986 19.7911 18.7095C19.8762 18.9566 19.9019 19.1748 19.8684 19.364C19.8525 19.5472 19.7535 19.6899 19.5716 19.792C19.3366 19.9124 19.1245 19.9558 18.9353 19.9222C18.7576 19.865 18.6326 19.7599 18.5603 19.6072ZM26.9087 16.7326C26.8065 16.5506 26.7074 16.3774 26.6114 16.2131C26.5153 16.0487 26.3875 15.9644 26.2281 15.9601C25.8977 15.9751 25.5769 16.0757 25.2659 16.2618C24.9549 16.4478 24.6855 16.6689 24.4578 16.925C24.224 17.1634 24.0435 17.4131 23.9162 17.6741C23.7828 17.9175 23.7316 18.1128 23.7626 18.2601C23.8008 18.543 23.9595 18.7747 24.2388 18.9549C24.518 19.1351 24.8855 19.285 25.3412 19.4045C26.0865 19.5624 26.8614 19.7201 27.6658 19.8774C28.4702 20.0348 29.1717 20.2374 29.7704 20.4854C30.3691 20.7333 30.8329 21.077 31.1619 21.5165C31.5025 21.9323 31.6556 22.4916 31.6212 23.1944C31.5911 23.7378 31.363 24.2507 30.9368 24.733C30.5107 25.2154 30.0103 25.6542 29.4357 26.0495C28.855 26.4271 28.2591 26.7606 27.648 27.05C27.0308 27.3217 26.5016 27.5336 26.0604 27.6855C25.9545 27.722 25.81 27.7322 25.6268 27.7163C25.4552 27.6767 25.2806 27.6282 25.1029 27.571C24.9429 27.5076 24.7918 27.4412 24.6494 27.3718C24.5186 27.2786 24.438 27.1879 24.4076 27.0997C24.2982 26.782 24.3635 26.5127 24.6033 26.2919C24.8432 26.0712 25.1131 25.9091 25.4132 25.8058C25.8368 25.6599 26.2808 25.4873 26.7451 25.2879C27.2211 25.0648 27.6645 24.8332 28.0754 24.593C28.4801 24.3352 28.8317 24.0661 29.13 23.7857C29.4283 23.5053 29.6055 23.2172 29.6616 22.9215C29.7122 22.6672 29.5477 22.4474 29.1681 22.2623C28.8 22.0534 28.3318 21.8691 27.7636 21.7094C27.2129 21.5436 26.6212 21.4019 25.9884 21.2842C25.3733 21.1604 24.8378 21.0387 24.3821 20.9193C23.9264 20.7998 23.5084 20.618 23.1282 20.3738C22.7419 20.1119 22.4253 19.7373 22.1785 19.2497C22.0028 18.7969 21.948 18.3222 22.0139 17.8257C22.0799 17.3292 22.2258 16.8644 22.4518 16.4312C22.6893 15.9743 22.9952 15.5728 23.3696 15.2267C23.744 14.8807 24.1518 14.6317 24.5931 14.4797C25.3642 14.2537 26.0637 14.2498 26.6916 14.4679C27.3134 14.6684 27.796 15.1241 28.1395 15.835C28.2246 16.0821 28.2504 16.3002 28.2168 16.4895C28.2009 16.6726 28.102 16.8153 27.92 16.9174C27.685 17.0378 27.4729 17.0812 27.2837 17.0477C27.106 16.9904 26.981 16.8853 26.9087 16.7326ZM35.2571 13.858C35.155 13.676 35.0559 13.5028 34.9598 13.3385C34.8637 13.1741 34.736 13.0898 34.5765 13.0855C34.2461 13.1005 33.9254 13.2011 33.6143 13.3872C33.3033 13.5732 33.0339 13.7943 32.8062 14.0504C32.5725 14.2888 32.3919 14.5386 32.2646 14.7995C32.1312 15.0429 32.08 15.2382 32.111 15.3855C32.1492 15.6685 32.3079 15.9001 32.5872 16.0803C32.8664 16.2606 33.2339 16.4104 33.6896 16.5299C34.435 16.6878 35.2098 16.8455 36.0142 17.0028C36.8186 17.1602 37.5201 17.3628 38.1188 17.6108C38.7175 17.8587 39.1813 18.2024 39.5103 18.6419C39.8509 19.0577 40.004 19.617 39.9696 20.3198C39.9396 20.8632 39.7114 21.3761 39.2853 21.8584C38.8591 22.3408 38.3587 22.7796 37.7841 23.1749C37.2034 23.5525 36.6075 23.886 35.9964 24.1754C35.3793 24.4471 34.8501 24.659 34.4088 24.8109C34.3029 24.8474 34.1584 24.8576 33.9752 24.8417C33.8036 24.8021 33.629 24.7537 33.4514 24.6964C33.2914 24.633 33.1402 24.5666 32.9978 24.4972C32.867 24.404 32.7864 24.3133 32.756 24.2251C32.6467 23.9074 32.7119 23.6381 32.9517 23.4174C33.1916 23.1966 33.4615 23.0345 33.7616 22.9312C34.1852 22.7854 34.6292 22.6127 35.0936 22.4133C35.5695 22.1902 36.0129 21.9586 36.4238 21.7184C36.8286 21.4606 37.1801 21.1915 37.4784 20.9111C37.7767 20.6307 37.9539 20.3426 38.01 20.0469C38.0606 19.7926 37.8961 19.5728 37.5165 19.3877C37.1484 19.1788 36.6803 18.9945 36.112 18.8348C35.5614 18.6691 34.9696 18.5273 34.3368 18.4096C33.7217 18.2858 33.1862 18.1641 32.7305 18.0447C32.2748 17.9252 31.8568 17.7434 31.4766 17.4992C31.0903 17.2373 30.7737 16.8627 30.5269 16.3751C30.3512 15.9223 30.2964 15.4476 30.3623 14.9511C30.4283 14.4546 30.5742 13.9898 30.8002 13.5566C31.0377 13.0997 31.3437 12.6982 31.718 12.3522C32.0924 12.0061 32.5003 11.7571 32.9415 11.6051C33.7126 11.3791 34.4121 11.3752 35.04 11.5933C35.6618 11.7938 36.1444 12.2495 36.4879 12.9604C36.573 13.2075 36.5988 13.4256 36.5652 13.6149C36.5493 13.798 36.4504 13.9407 36.2684 14.0428C36.0334 14.1632 35.8214 14.2066 35.6321 14.1731C35.4545 14.1158 35.3295 14.0108 35.2571 13.858ZM44.9471 11.4395C45.2764 11.3064 45.6391 11.2703 46.0352 11.3313C46.4313 11.3924 46.6932 11.6082 46.8208 11.9788C46.8888 12.291 46.788 12.5429 46.5183 12.7345C46.2602 12.9023 46.0429 13.0166 45.8664 13.0774C45.5135 13.1989 45.137 13.3384 44.7372 13.4959C44.3373 13.6533 43.9316 13.8226 43.5202 14.0037C43.6855 14.5983 43.8386 15.1576 43.9795 15.6816C44.1381 16.1995 44.2784 16.6645 44.4006 17.0765C44.5166 17.4709 44.6172 17.7916 44.7023 18.0387C44.7874 18.2858 44.8418 18.4151 44.8655 18.4267C45.2295 18.2224 45.6047 17.9649 45.9913 17.6541C46.3894 17.3196 46.7757 16.9793 47.15 16.6332C47.536 16.2634 47.9043 15.8997 48.255 15.542C48.6172 15.1607 48.9591 14.8061 49.2805 14.4782C49.4266 14.3292 49.5764 14.248 49.7297 14.2347C49.9007 14.2153 50.0251 14.2613 50.103 14.3727C50.2051 14.5547 50.2607 14.8021 50.2697 15.1149C50.2787 15.4276 50.2079 15.7383 50.0575 16.0467C49.8657 16.3497 49.5978 16.7183 49.2538 17.1526C48.9213 17.5632 48.5506 17.9772 48.1414 18.3944C47.7323 18.8117 47.3053 19.2055 46.8603 19.5759C46.4269 19.9225 46.0221 20.1804 45.646 20.3494C45.0817 20.6029 44.5858 20.596 44.1581 20.3286C43.7305 20.0613 43.4018 19.6513 43.172 19.0987C42.9422 18.546 42.7085 17.896 42.4709 17.1487C42.251 16.3952 42.0158 15.5977 41.7655 14.756C41.4423 14.9068 41.128 15.0545 40.8224 15.1992C40.5285 15.3201 40.2464 15.4469 39.9761 15.5794C39.7467 15.6584 39.4725 15.6936 39.1537 15.6849C38.8524 15.6702 38.6502 15.5128 38.5469 15.2128C38.5104 15.1069 38.5059 14.9505 38.5334 14.7436C38.5609 14.5367 38.7094 14.3375 38.9791 14.1459C39.6602 13.7732 40.4268 13.3908 41.2789 12.9987C41.0462 12.1509 40.8315 11.3266 40.6347 10.5257C40.4379 9.72479 40.2565 8.99753 40.0907 8.34391C40.0354 8.12604 40.0334 7.91944 40.0846 7.72413C40.1358 7.52882 40.2232 7.4099 40.3467 7.36736C40.6407 7.24639 40.9504 7.22858 41.2759 7.31392C41.613 7.37553 41.818 7.51223 41.891 7.72403C42.027 8.34843 42.1904 9.05225 42.3811 9.83549C42.5895 10.6127 42.8039 11.4075 43.0245 12.2199C43.3653 12.0631 43.6946 11.93 44.0123 11.8206C44.3415 11.6875 44.6531 11.5604 44.9471 11.4395ZM50.9707 1.78434C51.0793 2.61562 51.176 3.44112 51.2608 4.26083C51.3633 5.07446 51.4746 5.88505 51.5947 6.69261C51.7148 7.50016 51.8703 8.29556 52.061 9.07881C52.2517 9.86205 52.5042 10.624 52.8185 11.3647C52.9206 11.5467 52.9491 11.7442 52.904 11.9572C52.8765 12.164 52.8101 12.3152 52.7048 12.4107C52.3652 12.6856 52.0493 12.6858 51.7574 12.4112C51.2356 11.584 50.814 10.7322 50.4925 9.85579C50.1886 8.9733 49.9496 8.07837 49.7753 7.171C49.6188 6.25755 49.5005 5.34076 49.4206 4.42065C49.3522 3.47681 49.2869 2.5418 49.2247 1.61561C49.1914 1.23223 49.2657 0.989465 49.4477 0.887316C49.6297 0.785166 49.8211 0.739004 50.0219 0.748831C50.3171 0.74592 50.5455 0.864683 50.7073 1.10512C50.869 1.34556 50.9568 1.57196 50.9707 1.78434ZM54.8161 16.3923C54.883 16.5864 54.9477 16.8603 55.0102 17.2139C55.0843 17.5437 55.117 17.8681 55.1083 18.1869C55.1173 18.4997 55.0639 18.7747 54.9482 19.012C54.8501 19.2432 54.6593 19.3484 54.3758 19.3276C54.2042 19.2879 54.0052 19.1689 53.779 18.9704C53.5527 18.7719 53.4119 18.5637 53.3566 18.3459C53.2461 17.9101 53.1915 17.465 53.1929 17.0104C53.1944 16.5558 53.2946 16.2449 53.4937 16.0777C53.5874 16.0059 53.7021 15.9664 53.8378 15.9592C53.9912 15.9459 54.136 15.9651 54.2723 16.0169C54.4025 16.051 54.5211 16.1089 54.6282 16.1905C54.7292 16.2544 54.7918 16.3217 54.8161 16.3923Z" fill="#6966FF"/>
</svg>
