<svg width="83" height="80" viewBox="0 0 83 80" fill="none" xmlns="http://www.w3.org/2000/svg">
<path fill-rule="evenodd" clip-rule="evenodd" d="M1.38121 2.04936C1.04962 3.32044 0.7733 4.61915 0.662772 5.91786C0.303555 10.5048 -0.110925 25.8959 0.027235 28.9907C0.027235 29.9301 0.193027 30.9802 0.579876 31.8368C1.27068 33.3565 3.03913 33.4671 4.00626 32.0578C4.36547 31.5604 4.58653 30.8973 4.69706 30.2617C5.00101 28.4104 5.2497 26.559 5.38786 24.7077C5.77471 19.126 6.13393 13.5167 6.38262 7.935C6.46551 6.08365 6.27209 4.20467 6.05103 2.35332C5.88524 0.971714 4.75232 -0.0783071 3.7023 0.0045892C2.45886 0.115118 1.68516 0.916448 1.38121 2.04936ZM39.467 37.6527L39.4671 37.6526C39.6537 36.8428 39.8214 36.1154 40.0659 35.4009C43.658 24.7901 49.4332 15.3399 56.0096 6.35952C56.7833 5.3095 57.7504 4.31474 58.8281 3.65157C59.4083 3.29235 60.5689 3.34762 61.2321 3.70684C61.7294 3.98316 62.0887 5.06081 61.9781 5.66871C61.7847 6.82926 61.3702 8.01745 60.79 9.06746C56.9767 16.0031 53.1359 22.9111 49.2397 29.7915C48.0937 31.8025 46.8969 33.7966 45.7022 35.787L45.7021 35.7872C45.3702 36.3402 45.0385 36.8929 44.7081 37.4456C44.2107 38.3022 43.658 39.1312 43.0778 39.9049C42.4422 40.7891 41.4751 41.3141 40.508 40.7338C40.4469 40.6967 40.3853 40.6605 40.3239 40.6245C39.7461 40.2852 39.1816 39.9539 39.1816 38.8549C39.2876 38.4312 39.3794 38.0328 39.467 37.6527ZM78.3102 80.0006C77.8669 79.9267 77.3989 79.859 76.9166 79.7892C75.9557 79.6502 74.9378 79.5029 73.9444 79.2821L73.9419 79.2816L73.9417 79.2815C68.0569 77.9554 62.1722 76.6292 56.3151 75.2478C55.044 74.9439 53.8006 74.4189 52.6676 73.811C51.1479 73.0097 50.6229 71.8767 50.8716 70.6333C51.1203 69.3898 52.115 68.6161 53.8558 68.5885C55.044 68.5609 56.3151 68.5885 57.448 68.8648C64.881 70.7438 72.3141 72.6781 79.7195 74.6399C80.5484 74.861 81.405 75.2478 82.0406 75.8005C83.6432 77.1545 83.1459 79.2821 81.1011 79.8071C80.5946 79.9294 80.0439 79.9413 79.4352 79.9544H79.4351H79.4349C79.0806 79.962 78.7066 79.9701 78.3102 80.0006Z" fill="#6966FF"/>
</svg>
