<svg width="105" height="20" viewBox="0 0 105 20" fill="none" xmlns="http://www.w3.org/2000/svg">
<path fill-rule="evenodd" clip-rule="evenodd" d="M37.9643 6.9608C49.1331 4.72126 59.6175 3.92922 69.7354 3.77039C48.8777 1.22483 27.869 2.03276 7.10508 6.17829C18.496 7.30917 27.9196 7.35047 37.9643 6.9608ZM5.27421 18.5133C5.1771 17.9479 5.38595 17.3666 5.7398 17.2109C13.5218 13.814 20.9413 11.2399 28.0654 9.30426C19.6416 9.2979 11.0029 8.886 0.612336 7.56663C0.274452 7.52322 0.0117269 7.08378 0.000419779 6.54587C-0.0115525 6.0069 0.233879 5.541 0.568438 5.46264C25.9104 -0.448029 51.6755 -1.37878 77.1485 2.68943C77.497 2.74555 77.7551 3.21887 77.7478 3.76631C82.9038 3.82879 87.9847 4.00456 93.031 4.17822C96.7391 4.30634 100.574 4.4387 104.344 4.5213C104.71 4.52871 105.003 5.0052 105 5.58653C104.997 6.16891 104.701 6.63905 104.335 6.63905C82.0737 6.63905 66.1366 7.55605 53.331 8.29197C47.9148 8.60434 42.9324 8.89129 38.0949 9.07871C28.0541 11.0969 17.4607 14.2895 6.09165 19.2546C6.03245 19.2789 5.97326 19.2916 5.91539 19.2916C5.6234 19.2916 5.35536 18.9835 5.27421 18.5133Z" fill="#6966FF"/>
</svg>
