<svg width="30" height="120" viewBox="0 0 30 120" fill="none" xmlns="http://www.w3.org/2000/svg">
<path fill-rule="evenodd" clip-rule="evenodd" d="M27.8599 0.459509C27.7362 1.0482 27.3403 1.09337 27.3363 0.519262C27.3338 0.168393 27.3044 0.157637 27.1545 0.452578C26.9177 0.918174 27.0225 1.01354 27.8048 1.04581C28.3663 1.06899 28.4358 1.01426 28.2859 0.666016C28.1676 0.390913 28.1881 0.220259 28.3496 0.139234C28.4993 0.0639451 28.4712 0.0120792 28.2744 0.000367601C28.1017 -0.00990992 27.9153 0.196596 27.8599 0.459509ZM29.0285 0.625145C28.9043 1.21551 29.1497 1.88546 29.3035 1.37588C29.3565 1.20045 29.3398 0.847665 29.2666 0.591922C29.1376 0.141862 29.1297 0.143058 29.0285 0.625145ZM26.2014 1.31589C26.2106 1.59434 26.2561 1.65099 26.3174 1.46049C26.373 1.28793 26.366 1.08166 26.3022 1.00231C26.2384 0.922955 26.1931 1.06397 26.2014 1.31589ZM25.2734 2.07069C24.7726 2.48681 24.7038 3.21102 25.145 3.42159C25.6097 3.64339 25.6777 3.59798 25.4319 3.22966C25.2546 2.96388 25.2874 2.82262 25.5878 2.5609C26.1347 2.08455 25.8293 1.60868 25.2734 2.07069ZM23.4959 3.77772C23.4959 3.89388 23.3014 4.06142 23.0635 4.15034C22.6448 4.30641 22.6433 4.31764 23.0155 4.50407C23.286 4.63959 23.419 4.5949 23.4646 4.35302C23.5026 4.15201 23.6535 4.06883 23.8281 4.15201C24.076 4.27056 24.0856 4.23303 23.8839 3.93068C23.6077 3.51671 23.4959 3.47274 23.4959 3.77772ZM21.187 5.00409C20.8492 5.39654 20.4954 5.71778 20.4009 5.71778C20.3063 5.71778 20.2291 5.82533 20.2291 5.95679C20.2291 6.08825 20.1157 6.1958 19.9772 6.1958C19.5942 6.1958 18.8449 7.15878 18.9537 7.51132C19.0073 7.68532 18.8788 7.87725 18.6612 7.948C18.3705 8.04265 18.3046 8.198 18.3989 8.56776C18.4981 8.95615 18.4585 9.02929 18.2125 8.91193C17.8741 8.75036 17.0949 9.61965 16.4694 10.8565C16.2699 11.2509 16.0034 11.6548 15.877 11.7543C15.7505 11.8537 15.5903 12.2569 15.5209 12.6506C15.4513 13.0442 15.3149 13.3662 15.2177 13.3662C15.1202 13.3662 15.0407 13.5275 15.0407 13.7247C15.0407 13.9219 14.9542 14.0832 14.8485 14.0832C14.7428 14.0832 14.6563 14.2445 14.6563 14.4417C14.6563 14.6389 14.5266 14.8002 14.3681 14.8002C14.1615 14.8002 14.0799 15.0627 14.0799 15.7271C14.0799 16.2592 13.9571 16.7805 13.7916 16.9513C13.6331 17.1151 13.5034 17.4509 13.5034 17.6975C13.5034 17.9444 13.4169 18.1464 13.3112 18.1464C13.2055 18.1464 13.119 18.368 13.119 18.6385C13.119 18.9091 13.0416 19.0711 12.947 18.9985C12.7182 18.8226 12.5035 19.5487 12.6805 19.9008C12.9449 20.4275 12.92 20.989 12.6154 21.3678C12.4063 21.6281 12.2372 21.6733 12.0802 21.5112C11.9101 21.3356 11.8508 21.4837 11.8508 22.0846C11.8508 22.5301 11.9365 22.875 12.0412 22.8509C12.1457 22.8267 12.2645 22.9953 12.305 23.2254C12.3454 23.4556 12.2858 23.6437 12.1722 23.6437C12.0589 23.6437 11.9661 23.5108 11.9661 23.3485C11.9661 23.186 11.7931 23.4546 11.5817 23.9451C11.3703 24.4358 11.1974 24.9449 11.1974 25.0768C11.1974 25.2087 11.0245 25.5319 10.8131 25.7948C10.3993 26.3094 10.2913 27.2289 10.6444 27.2289C10.7912 27.2289 10.7989 27.3242 10.6682 27.5276C10.5588 27.6978 10.5429 28.0322 10.6311 28.3044C10.8332 28.928 10.8498 29.3872 10.6689 29.3518C10.1589 29.2516 10.0102 29.4173 10.1203 29.9629C10.1851 30.2834 10.1509 30.6128 10.0444 30.6945C9.93796 30.7763 9.90375 31.1056 9.96851 31.4262C10.0588 31.8743 10.0098 32.0091 9.75636 32.0091C9.54902 32.0091 9.466 32.1363 9.53268 32.3521C9.59091 32.5409 9.54268 32.735 9.42565 32.7835C9.30881 32.832 9.19678 33.3497 9.17699 33.9341C9.1572 34.5187 9.07899 35.2386 9.00327 35.5345C8.90815 35.9062 8.9437 36.0735 9.11876 36.0759C9.31708 36.0788 9.31381 36.1254 9.10358 36.2908C8.94409 36.4165 8.88759 36.6713 8.96407 36.9194C9.0417 37.1703 8.96061 37.5183 8.76038 37.7934C8.49769 38.1544 8.47367 38.341 8.64604 38.6842C8.80957 39.0098 8.80746 39.1895 8.63739 39.4039C8.46329 39.6238 8.49711 39.7686 8.78401 40.032C8.99251 40.2235 9.04978 40.3745 8.91372 40.3745C8.64777 40.3745 8.69216 41.5667 9.08667 45.0037C9.3213 47.0473 9.55709 48.0229 9.81632 48.0229C10.1028 48.0229 10.0469 49.6351 9.74964 49.9417C9.59475 50.1016 9.46792 50.5206 9.46792 50.8724C9.46792 51.2245 9.38587 51.6148 9.28556 51.7396C9.18525 51.8646 9.06765 52.3677 9.02422 52.8579C8.93429 53.8737 8.59492 54.5033 8.23097 54.3295C8.05898 54.2473 7.94349 54.563 7.85432 55.3594C7.78361 55.9911 7.60816 56.701 7.46423 56.9371C7.15677 57.4419 7.28302 58.3005 7.66485 58.3005C7.81089 58.3005 7.93061 58.408 7.93061 58.5395C7.93061 58.6709 7.79475 58.7785 7.62853 58.7785C7.4331 58.7785 7.33894 58.9683 7.36162 59.3163C7.42676 60.3168 7.35739 60.4516 6.77763 60.4516C6.3933 60.4516 6.20114 60.5711 6.20114 60.8101C6.20114 61.0073 6.28761 61.1686 6.3933 61.1686C6.49899 61.1686 6.58547 61.4375 6.58547 61.7661C6.58547 62.0948 6.49899 62.3637 6.3933 62.3637C6.28761 62.3637 6.20114 62.2346 6.20114 62.0768C6.20114 61.857 6.14829 61.8558 5.97515 62.0711C5.85102 62.2255 5.7215 63.1883 5.68749 64.2103C5.65367 65.2323 5.58891 66.2835 5.54375 66.5464C5.49878 66.8093 5.45535 67.1049 5.44728 67.2037C5.43902 67.3024 5.29759 67.3829 5.1329 67.3829C4.96822 67.3829 4.88097 67.479 4.93939 67.5966C4.99781 67.714 4.90845 68.2785 4.74089 68.8514C4.25414 70.5152 4.36943 72.1632 4.97264 72.1632C5.13002 72.1632 5.24032 72.4093 5.24032 72.7607C5.24032 73.1326 5.13136 73.3582 4.95207 73.3582C4.67344 73.3582 4.58235 73.7406 4.65384 74.613C4.67267 74.843 4.60714 75.0313 4.50837 75.0313C4.4094 75.0313 4.27258 75.467 4.20417 75.9995C4.11021 76.73 4.1569 77.0641 4.39365 77.3586C4.68439 77.72 4.67978 77.762 4.33369 77.9212C4.02277 78.0644 3.96839 78.2878 4.01201 79.2465C4.04083 79.8806 4.15959 80.439 4.27604 80.4872C4.42766 80.5501 4.42478 80.6696 4.26567 80.9077C4.14364 81.0907 3.96647 81.1808 3.87211 81.1084C3.77757 81.0358 3.64498 81.1553 3.57753 81.3742C3.51008 81.5929 3.54889 81.8441 3.66381 81.9325C3.97934 82.1751 3.94283 85.2792 3.61116 86.4365C3.56523 86.5966 3.61039 86.7912 3.71146 86.8689C3.97185 87.0692 3.93956 88.2652 3.66458 88.6072C3.48529 88.8302 3.48529 88.9578 3.66458 89.1808C3.79141 89.3386 3.89517 89.7222 3.89517 90.0331C3.89517 90.3441 3.97607 90.7868 4.07504 91.0167C4.17938 91.259 4.18803 91.8045 4.0956 92.3138C4.0049 92.8145 4.00894 93.137 4.10502 93.0631C4.19783 92.9919 4.21839 93.2775 4.15075 93.6982C4.06658 94.2218 4.11309 94.5459 4.29833 94.7259C4.55872 94.979 4.68055 96.5118 4.67786 99.5009C4.67728 100.142 4.76068 100.862 4.8633 101.101C4.98801 101.391 4.97725 101.733 4.83082 102.132C4.67786 102.55 4.66844 103.009 4.7995 103.651C4.94477 104.363 4.92363 104.69 4.70611 105.098C4.45495 105.568 4.45821 105.625 4.73647 105.625C4.90788 105.625 5.06142 105.759 5.07737 105.924C5.16403 106.807 5.15327 106.964 4.98859 107.238C4.87175 107.433 4.88443 107.537 5.02471 107.537C5.14328 107.537 5.24032 107.806 5.24032 108.134C5.24032 108.463 5.15596 108.732 5.05296 108.732C4.9342 108.732 4.93017 108.943 5.04162 109.308C5.13847 109.625 5.21957 110.62 5.22187 111.519C5.2286 114.128 5.25512 114.468 5.45132 114.468C5.55336 114.468 5.61639 114.845 5.5914 115.305C5.55239 116.026 5.49148 116.123 5.15289 115.997C4.9367 115.917 4.32754 115.333 3.79909 114.698C3.27064 114.062 2.5923 113.468 2.29157 113.377C1.93683 113.268 1.82711 113.147 1.9793 113.03C2.1436 112.904 1.96335 112.501 1.37764 111.687C0.917788 111.048 0.523467 110.487 0.50156 110.441C0.479461 110.395 0.335532 110.502 0.181609 110.68C-0.0520626 110.95 -0.057443 111.101 0.149325 111.601C0.285569 111.93 0.578619 112.403 0.800952 112.653C1.02309 112.904 1.20488 113.253 1.20488 113.43C1.20488 113.607 1.33459 113.751 1.49313 113.751C1.65166 113.751 1.78137 113.889 1.78137 114.056C1.78137 114.225 2.04079 114.715 2.35786 115.147C2.67493 115.579 2.93435 115.99 2.93435 116.061C2.93435 116.294 4.23684 117.814 4.4365 117.814C4.54392 117.814 4.66633 117.685 4.7088 117.527C4.76856 117.304 4.81718 117.304 4.92825 117.527C5.00665 117.685 4.97513 117.814 4.8583 117.814C4.74146 117.814 4.92998 118.272 5.27741 118.83C5.62465 119.389 5.93615 119.897 5.96939 119.959C6.00263 120.021 6.10083 119.929 6.1875 119.754C6.29799 119.532 6.38466 119.516 6.4767 119.701C6.77859 120.309 7.45251 119.96 7.97865 118.924C8.2694 118.352 8.5071 117.765 8.5071 117.618C8.5071 117.473 8.6887 117.232 8.91065 117.085C9.19928 116.893 9.28883 116.652 9.22541 116.24C9.16065 115.818 9.22234 115.663 9.4562 115.663C9.84437 115.663 10.2247 115.226 10.157 114.857C10.1297 114.709 10.1472 114.682 10.1958 114.796C10.2445 114.911 10.5114 114.731 10.7889 114.396C11.3755 113.688 12.4893 112.423 13.1828 111.677C13.5141 111.321 13.6338 111 13.5627 110.661C13.4768 110.254 13.5474 110.166 13.9613 110.166C14.3865 110.166 14.4642 110.06 14.4642 109.482C14.4642 108.893 14.5268 108.813 14.9163 108.906C15.2203 108.978 15.5443 108.811 15.9052 108.395C16.2004 108.054 16.4992 107.776 16.5691 107.776C16.6391 107.776 16.6789 107.319 16.6573 106.76C16.5824 104.801 16.2056 104.203 15.7269 105.281C15.4348 105.939 15.1708 106.123 14.9976 105.791C14.8864 105.578 14.8016 105.596 14.6638 105.863C14.5042 106.172 14.4448 106.161 14.2215 105.781C13.9872 105.383 13.9402 105.378 13.7099 105.723C13.5704 105.932 13.3742 106.103 13.2739 106.103C13.1736 106.103 12.9618 106.264 12.8033 106.461C12.6309 106.676 12.6023 106.82 12.7324 106.82C12.8517 106.82 12.8961 106.927 12.8308 107.059C12.7655 107.19 12.5443 107.298 12.339 107.298C12.119 107.298 11.9661 107.461 11.9661 107.696C11.9661 107.915 11.9088 108.023 11.8388 107.936C11.6073 107.649 9.46792 109.887 9.46792 110.418C9.46792 110.542 9.12395 111.072 8.70369 111.595C7.69771 112.846 7.33875 112.694 7.38179 111.036C7.43771 108.877 7.31031 105.513 7.1633 105.266C7.08509 105.135 6.96192 104.01 6.88947 102.766C6.81702 101.523 6.67655 100.384 6.5772 100.235C6.47786 100.086 6.44634 99.9022 6.50726 99.8264C6.68924 99.6001 6.73151 97.252 6.55587 97.1172C6.46652 97.0484 6.38715 96.5952 6.37985 96.11C6.37236 95.6248 6.29684 95.0127 6.21171 94.7498C6.12677 94.4869 6.131 94.0949 6.22132 93.8786C6.3297 93.6188 6.2903 93.3874 6.10506 93.1962C5.91328 92.9983 5.87946 92.7801 5.99802 92.5045C6.21767 91.994 6.16251 86.7429 5.93749 86.7429C5.84525 86.7429 5.87984 86.578 6.01436 86.3763C6.20248 86.0945 6.20825 85.887 6.03895 85.48C5.91789 85.1886 5.82527 84.4663 5.83334 83.8748C5.84122 83.2832 5.80336 82.483 5.74898 82.0963C5.69479 81.7095 5.74475 81.1742 5.86005 80.9062C5.97535 80.6383 6.09545 80.1478 6.12677 79.8166C6.15829 79.4851 6.22689 78.7883 6.27916 78.2682C6.37351 77.3297 6.12235 76.5892 5.7951 76.8406C5.70132 76.9126 5.62465 76.8693 5.62465 76.7441C5.62465 76.6188 5.7436 76.4599 5.88887 76.3906C6.03415 76.321 6.21478 75.7507 6.29049 75.1228C6.40387 74.1833 6.3689 73.9271 6.09295 73.6763C5.79548 73.4055 5.79183 73.3551 6.06067 73.2268C6.70038 72.9215 7.00957 71.5379 6.86545 69.6253C6.7857 68.5677 6.61487 67.6924 6.4473 67.484C6.29126 67.2902 6.21267 66.973 6.27243 66.7792C6.45268 66.1953 6.77609 66.3824 6.79992 67.0842C6.8151 67.5299 6.85161 67.5995 6.91368 67.3002C6.96384 67.0576 7.14255 66.6594 7.31069 66.4152C7.63756 65.9405 7.70866 65.5822 7.86585 63.6185C7.93523 62.7494 8.05052 62.3637 8.24038 62.3637C8.539 62.3637 8.43005 61.3146 8.07281 60.7503C7.93792 60.5374 7.97308 60.4516 8.19542 60.4516C8.36683 60.4516 8.5071 60.2902 8.5071 60.093C8.5071 59.8959 8.62778 59.7345 8.77517 59.7345C8.9829 59.7345 9.00846 59.5438 8.88913 58.8856C8.77902 58.278 8.79843 58.0629 8.95754 58.1296C9.19178 58.2276 9.66009 57.0868 9.66009 56.4182C9.66009 56.2019 9.87627 55.7349 10.1405 55.3804C10.4047 55.0262 10.6209 54.476 10.6209 54.1581C10.6209 53.0802 10.86 52.0861 11.1194 52.0861C11.2643 52.0861 11.3313 52.236 11.272 52.4279C11.1201 52.9203 11.718 54.3572 12.2149 54.6947C12.448 54.8527 12.8506 55.406 13.1096 55.9242C13.3687 56.4424 13.693 56.8664 13.8302 56.8664C13.9674 56.8664 14.0799 57.0153 14.0799 57.1974C14.0799 57.7393 15.0143 58.3604 15.5689 58.1874C15.8825 58.0894 16.1189 58.1472 16.2206 58.3463C16.3401 58.5811 16.3806 58.5545 16.3829 58.2407C16.3879 57.5108 17.2363 57.6198 17.9337 58.44C18.4833 59.0866 19.7754 59.2818 19.593 58.691C19.5254 58.4718 19.7402 58.2718 20.245 58.0837C20.9805 57.8098 21.0998 57.5765 21.0285 56.5537C21.0095 56.2822 21.081 56.1852 21.2205 56.2923C21.3725 56.4091 21.4084 56.3004 21.3342 55.9476C21.2747 55.6642 21.2925 55.4323 21.374 55.4323C21.5333 55.4323 22.1507 53.5737 22.1507 53.0941C22.1507 52.9339 22.021 52.8032 21.8625 52.8032C21.4716 52.8032 21.4983 52.328 21.9105 51.9494C22.1799 51.7018 22.1992 51.5801 22.0066 51.3373C21.8746 51.1707 21.7664 50.7871 21.7664 50.4848C21.7664 50.1824 21.6792 49.935 21.5727 49.935C21.4551 49.935 21.4693 49.7548 21.609 49.4764C21.7893 49.1176 21.787 48.9391 21.5985 48.6568C21.4659 48.4582 21.3212 47.939 21.277 47.5033C21.2326 47.0676 21.1084 46.6747 21.001 46.63C20.8934 46.5855 20.8056 46.4022 20.8056 46.2227C20.8056 46.0429 20.4814 45.601 20.085 45.2403C19.6887 44.8797 19.2529 44.4177 19.1167 44.2136C18.8974 43.8854 18.8453 43.884 18.666 44.1999C18.4958 44.5001 18.4804 44.4911 18.5703 44.1426C18.6854 43.6971 18.0892 43.1299 17.8215 43.4303C17.7379 43.5242 17.7406 43.4485 17.8278 43.2618C17.9447 43.0113 17.9049 42.9611 17.6762 43.0704C17.4585 43.1743 17.3979 43.1153 17.4731 42.872C17.6143 42.414 17.0334 42.4202 16.3182 42.8842C16.0119 43.0828 15.567 43.1762 15.3093 43.0957C14.9334 42.9783 14.8485 43.0436 14.8485 43.4499C14.8485 43.883 14.7855 43.9181 14.366 43.7198C13.9521 43.524 13.8089 43.5959 13.3571 44.2277C13.0677 44.6325 12.5929 45.117 12.3023 45.3044C11.942 45.5367 11.7739 45.8333 11.7739 46.2366C11.7739 46.9443 11.3953 47.0267 11.2531 46.3498C11.1978 46.0869 11.0761 45.8718 10.9828 45.8718C10.8894 45.8718 10.8194 45.361 10.8273 44.7365C10.8494 42.9585 10.561 41.3306 10.2237 41.3306C9.94353 41.3306 10.0135 40.5765 10.3209 40.2813C10.5118 40.0982 10.6355 39.2763 10.7206 37.6273C10.7883 36.3137 10.9309 35.1084 11.0371 34.949C11.1434 34.7895 11.1724 34.5422 11.1013 34.3992C11.0302 34.2563 11.0767 33.9826 11.2043 33.7912C11.3678 33.5462 11.3728 33.4432 11.2208 33.4432C10.9116 33.4432 10.9549 32.823 11.2935 32.4018C11.6857 31.9137 11.6596 31.795 11.1013 31.5311C10.8371 31.4061 10.6278 31.1668 10.6361 30.9993C10.648 30.7596 10.6718 30.7584 10.7481 30.9933C10.9683 31.6719 11.7739 30.9692 11.7739 30.0985C11.7739 29.8174 11.8767 29.3527 12.0024 29.0654C12.1279 28.7784 12.2485 28.3821 12.2704 28.1849C12.2922 27.9877 12.4138 27.2348 12.5406 26.5118C12.6673 25.7888 12.8079 24.8208 12.8531 24.3607C12.9743 23.1279 13.0654 22.9267 13.5034 22.9267C13.7215 22.9267 13.9473 22.7386 14.0055 22.5084C14.0635 22.2782 14.2075 21.8212 14.3251 21.4926C14.4427 21.1639 14.5535 20.7089 14.5712 20.4811C14.5891 20.2533 14.718 19.8957 14.8577 19.6861C15.0699 19.3682 15.0662 19.269 14.8362 19.0879C14.6097 18.9096 14.6204 18.8701 14.8966 18.867C15.0816 18.8651 15.2451 18.6753 15.2601 18.4452C15.2855 18.0549 15.3097 17.7226 15.3921 16.6385C15.4102 16.4007 15.5036 16.2666 15.5999 16.3404C15.696 16.4143 15.9144 16.4081 16.0851 16.3266C16.3145 16.2171 16.3418 16.0978 16.1894 15.8693C16.037 15.6411 16.0736 15.4764 16.3286 15.2398C16.73 14.8669 17.9231 12.7447 17.9231 12.4032C17.9231 12.2756 18.0528 12.1711 18.2114 12.1711C18.5592 12.1711 18.5984 11.5313 18.2594 11.3864C18.1274 11.3298 18.1716 11.3123 18.358 11.3472C18.8184 11.4338 19.2083 10.5461 18.7961 10.3494C18.3584 10.1405 18.4354 9.70426 18.8841 9.8503C19.0957 9.91913 19.2204 9.87778 19.1611 9.75875C19.1019 9.63949 19.2252 9.54197 19.4355 9.54197C19.883 9.54197 20.4739 8.88541 20.3148 8.56489C20.2543 8.44323 20.3304 8.28357 20.4839 8.21019C20.6374 8.13706 20.7418 7.89566 20.7158 7.67409C20.6899 7.45253 20.7057 7.40592 20.7512 7.57012C20.8892 8.06942 21.2497 7.88968 22.0331 6.93172C22.7397 6.06769 22.856 5.34062 22.2407 5.63436C21.8523 5.8196 21.8836 5.31576 22.2776 5.04137C22.5645 4.8418 22.5566 4.79304 22.199 4.55474C21.8638 4.33175 21.7051 4.40225 21.187 5.00409ZM19.6005 45.2991C19.5367 45.3785 19.3709 45.3871 19.2323 45.318C19.079 45.2418 19.1245 45.1851 19.3484 45.1737C19.551 45.1634 19.6643 45.2198 19.6005 45.2991ZM18.1837 46.5191C18.2742 46.7153 18.5119 47.0504 18.7122 47.2636C18.9124 47.4768 19.0761 47.7808 19.0761 47.9395C19.0761 48.098 19.1891 48.37 19.3271 48.5437C19.5362 48.8069 19.7827 49.3657 19.9409 49.935C19.9591 50.0008 20.0412 50.2441 20.123 50.4759C20.2051 50.7075 20.1912 51.0302 20.0925 51.1929C19.8377 51.6122 19.8252 52.6053 20.0702 52.9724C20.2237 53.2028 20.1626 53.4918 19.8344 54.0876C19.2775 55.0986 18.4568 55.6383 17.3466 55.7241C16.5515 55.7856 16.465 55.8558 16.2719 56.5989C16.1089 57.2266 16.0338 57.3155 15.9356 56.9976C15.8662 56.7724 15.8093 56.3819 15.8093 56.1297C15.8093 55.8776 15.7013 55.6677 15.5691 55.6634C15.2338 55.6522 14.3827 54.7368 14.5336 54.5494C14.6748 54.3737 14.1079 53.5202 13.8498 53.5202C13.5333 53.5202 12.9855 52.6887 12.7633 51.8713C12.4914 50.8705 12.4776 49.935 12.7347 49.935C12.8404 49.935 12.9269 49.7166 12.9269 49.4496C12.9269 49.1824 13.0566 48.902 13.2151 48.8265C13.3737 48.7507 13.5034 48.5626 13.5034 48.4082C13.5034 48.2541 13.7628 48.006 14.0799 47.8571C14.4667 47.6754 14.6563 47.4223 14.6563 47.0877C14.6563 46.7208 14.778 46.5889 15.1162 46.5889C15.3691 46.5889 15.6243 46.4325 15.6833 46.2413C15.8293 45.7681 17.946 46.003 18.1837 46.5191ZM18.0544 57.6283C17.9931 57.8188 17.9475 57.7622 17.9383 57.4837C17.93 57.2318 17.9754 57.0908 18.0392 57.1702C18.103 57.2495 18.1099 57.4558 18.0544 57.6283ZM6.35391 69.8925C6.39311 70.2037 6.35814 70.2704 6.25418 70.0838C6.16617 69.926 5.88042 69.6856 5.61927 69.5498C5.15212 69.3067 5.15365 69.3034 5.719 69.3586C6.12639 69.3983 6.31144 69.5539 6.35391 69.8925Z" fill="#6966FF"/>
</svg>
